<svg id="_13" data-name="13" xmlns="http://www.w3.org/2000/svg" width="600" height="6720" viewBox="0 0 600 6720">
  <metadata><?xpacket begin="﻿" id="W5M0MpCehiHzreSzNTczkc9d"?>
<x:xmpmeta xmlns:x="adobe:ns:meta/" x:xmptk="Adobe XMP Core 5.6-c138 79.159824, 2016/09/14-01:09:01        ">
   <rdf:RDF xmlns:rdf="http://www.w3.org/1999/02/22-rdf-syntax-ns#">
      <rdf:Description rdf:about=""/>
   </rdf:RDF>
</x:xmpmeta>
                                                                                                    
                                                                                                    
                                                                                                    
                                                                                                    
                                                                                                    
                                                                                                    
                                                                                                    
                                                                                                    
                                                                                                    
                                                                                                    
                                                                                                    
                                                                                                    
                                                                                                    
                                                                                                    
                                                                                                    
                                                                                                    
                                                                                                    
                                                                                                    
                                                                                                    
                                                                                                    
                           
<?xpacket end="w"?></metadata>
<defs>
    <style>
      .cls-1 {
        fill: #fff;
        fill-rule: evenodd;
      }
    </style>
  </defs>
  <path id="ARRIV-_ALS_" data-name="ARRIV- ALS " class="cls-1" d="M41.258,6495.85H64.406l8.785-20.92h41l8.785,20.92h23.148l-42.392-99.01H83.65Zm40.022-40.16,12.411-29.84,12.411,29.84H81.28Zm83.535,40.16h22.173v-40.86h3.625l32.91,40.86h26.635l-35-43.65c12.551-4.46,19.384-12.69,19.384-25.51,0-16.46-11.993-29.85-30.679-29.85H164.815v99.01Zm22.173-59.68V6417.2h14.223c6.554,0,11.3,3.49,11.3,9.49,0,5.71-4.742,9.48-11.3,9.48H186.988Zm78.513,59.68h22.172v-40.86H291.3l32.91,40.86h26.634l-35-43.65c12.55-4.46,19.383-12.69,19.383-25.51,0-16.46-11.993-29.85-30.679-29.85H265.5v99.01Zm22.172-59.68V6417.2H301.9c6.554,0,11.3,3.49,11.3,9.49,0,5.71-4.741,9.48-11.3,9.48H287.673Zm78.513,59.68h22.172v-99.01H366.186v99.01Zm81.718,0h19.941l40.58-99.01h-24.4l-26.217,65.96-26.356-65.96H407.325Zm68.753-29h41v-20.08h-41v20.08Zm-475.4,138.74H64.406l8.785-20.92h41l8.785,20.92h23.148l-42.392-99.01H83.65Zm40.022-40.16,12.411-29.85,12.411,29.85H81.28Zm83.535,40.16h63.171v-21.2h-41v-77.81H164.815v99.01Zm114.909,1.67c20.917,0,35.28-12.55,35.42-30.54,0.139-14.92-9.2-24.4-23.567-29.56l-6.973-2.51c-10.458-3.77-15.339-6.14-15.339-11.44,0-5.16,6-7.53,11.992-7.53a22.02,22.02,0,0,1,17.153,8.23l14.5-15.34c-9.2-9.9-19.941-13.66-31.933-13.66-19.8,0-34.165,11.29-34.165,30.53,0,13.53,8.924,23.15,24.961,28.59l6.972,2.37c9.9,3.35,13.806,6.84,13.806,11.86,0,4.74-4.6,8.22-11.993,8.22-7.251,0-15.758-4.18-20.5-11.29l-17.013,14.36C250.718,6600.71,264.105,6607.26,279.724,6607.26Z"/>
  <path id="NEW_" data-name="NEW " class="cls-1" d="M140.674,6385.85v-99.01H118.362v61.08l-48.11-61.08h-19.1v99.01H73.32v-61.22l48.249,61.22h19.105Zm29.289,0h62.752v-21.19h-40.58v-17.71h32.213v-21.2H192.135v-17.71h40.58v-21.2H169.963v99.01Zm165.948,0h21.057l23.009-99.01H356.271l-13.527,62.76-27.889-64.43L287.1,6349.6l-13.526-62.76H249.871l22.87,99.01H293.8l21.057-48.53Z"/>
  <path id="ARRIV-_ALS_2" data-name="ARRIV- ALS " class="cls-1" d="M41.258,6015.85H64.406l8.785-20.92h41l8.785,20.92h23.148l-42.392-99.01H83.65Zm40.022-40.16,12.411-29.84,12.411,29.84H81.28Zm83.535,40.16h22.173v-40.86h3.625l32.91,40.86h26.635l-35-43.65c12.551-4.46,19.384-12.69,19.384-25.51,0-16.46-11.993-29.85-30.679-29.85H164.815v99.01Zm22.173-59.68V5937.2h14.223c6.554,0,11.3,3.49,11.3,9.49,0,5.71-4.742,9.48-11.3,9.48H186.988Zm78.513,59.68h22.172v-40.86H291.3l32.91,40.86h26.634l-35-43.65c12.55-4.46,19.383-12.69,19.383-25.51,0-16.46-11.993-29.85-30.679-29.85H265.5v99.01Zm22.172-59.68V5937.2H301.9c6.554,0,11.3,3.49,11.3,9.49,0,5.71-4.741,9.48-11.3,9.48H287.673Zm78.513,59.68h22.172v-99.01H366.186v99.01Zm81.718,0h19.941l40.58-99.01h-24.4l-26.217,65.96-26.356-65.96H407.325Zm68.753-29h41v-20.08h-41v20.08Zm-475.4,138.74H64.406l8.785-20.92h41l8.785,20.92h23.148l-42.392-99.01H83.65Zm40.022-40.16,12.411-29.85,12.411,29.85H81.28Zm83.535,40.16h63.171v-21.2h-41v-77.81H164.815v99.01Zm114.909,1.67c20.917,0,35.28-12.55,35.42-30.54,0.139-14.92-9.2-24.4-23.567-29.56l-6.973-2.51c-10.458-3.77-15.339-6.14-15.339-11.44,0-5.16,6-7.53,11.992-7.53a22.02,22.02,0,0,1,17.153,8.23l14.5-15.34c-9.2-9.9-19.941-13.66-31.933-13.66-19.8,0-34.165,11.29-34.165,30.54,0,13.52,8.924,23.14,24.961,28.58l6.972,2.37c9.9,3.35,13.806,6.84,13.806,11.86,0,4.74-4.6,8.22-11.993,8.22-7.251,0-15.758-4.18-20.5-11.29l-17.013,14.36C250.718,6120.71,264.105,6127.26,279.724,6127.26Z"/>
  <path id="NEW_2" data-name="NEW " class="cls-1" d="M140.674,5905.85v-99.01H118.362v61.08l-48.11-61.08h-19.1v99.01H73.32v-61.22l48.249,61.22h19.105Zm29.289,0h62.752v-21.19h-40.58v-17.71h32.213v-21.2H192.135v-17.71h40.58v-21.2H169.963v99.01Zm165.948,0h21.057l23.009-99.01H356.271l-13.527,62.76-27.889-64.43L287.1,5869.6l-13.526-62.76H249.871l22.87,99.01H293.8l21.057-48.53Z"/>
  <path id="Rectangle_622_copy_30" data-name="Rectangle 622 copy 30" class="cls-1" d="M460.657,5506.85v-20.08h41v20.08h-41Zm-68.753,29-40.579-99.01h24.124l26.356,65.96,26.217-65.96h24.4l-40.58,99.01H391.9Zm-81.718-99.01h22.172v99.01H310.186v-99.01Zm-41.977,99.01-32.91-40.86h-3.626v40.86H209.5v-99.01h39.045c18.686,0,30.679,13.39,30.679,29.85,0,12.82-6.833,21.05-19.383,25.51l35,43.65H268.209ZM245.9,5457.2H231.673v18.97H245.9c6.554,0,11.3-3.77,11.3-9.48C257.192,5460.69,252.451,5457.2,245.9,5457.2Zm-78.374,78.65-32.91-40.86h-3.625v40.86H108.815v-99.01h39.046c18.686,0,30.679,13.39,30.679,29.85,0,12.82-6.833,21.05-19.384,25.51l35,43.65H167.523Zm-22.312-78.65H130.988v18.97h14.223c6.554,0,11.3-3.77,11.3-9.48C156.507,5460.69,151.765,5457.2,145.211,5457.2ZM58.19,5624.67h-41l-8.785,20.92H0v-34.43l27.65-64.58H47.731l42.393,99.01H66.975Zm-20.5-49.09L25.28,5605.43H50.1Zm20.5-60.65h-41l-8.785,20.92H0v-34.43l27.65-64.58H47.731l42.393,99.01H66.975Zm-20.5-49.08L25.28,5495.69H50.1Zm93.3,158.54h41v21.2H108.815v-99.01h22.173v77.81Zm93.572,2.09c7.391,0,11.993-3.48,11.993-8.22,0-5.02-3.905-8.51-13.806-11.86l-6.972-2.37c-16.037-5.44-24.961-15.06-24.961-28.59,0-19.24,14.363-30.53,34.165-30.53,11.992,0,22.73,3.76,31.933,13.66l-14.5,15.34a22.02,22.02,0,0,0-17.153-8.23c-6,0-11.992,2.37-11.992,7.53,0,5.3,4.881,7.67,15.339,11.44l6.973,2.51c14.363,5.16,23.706,14.64,23.567,29.56-0.14,17.99-14.5,30.54-35.421,30.54-15.618,0-29.005-6.55-36.675-17.71l17.013-14.36C208.8,5622.3,217.309,5626.48,224.56,5626.48Z"/>
  <path id="NEW_3" data-name="NEW " class="cls-1" d="M140.674,5410.85v-99.01H118.362v61.08l-48.11-61.08h-19.1v99.01H73.32v-61.22l48.249,61.22h19.105Zm29.289,0h62.752v-21.19h-40.58v-17.71h32.213v-21.2H192.135v-17.71h40.58v-21.2H169.963v99.01Zm165.948,0h21.057l23.009-99.01H356.271l-13.527,62.76-27.889-64.43L287.1,5374.6l-13.526-62.76H249.871l22.87,99.01H293.8l21.057-48.53Z"/>
  <path id="Rectangle_622_copy_29" data-name="Rectangle 622 copy 29" class="cls-1" d="M404.657,5026.85v-20.08h41v20.08h-41Zm-68.753,29-40.579-99.01h24.124l26.356,65.96,26.217-65.96h24.4l-40.58,99.01H335.9Zm-81.718-99.01h22.172v99.01H254.186v-99.01Zm-41.977,99.01-32.91-40.86h-3.626v40.86H153.5v-99.01h39.045c18.686,0,30.679,13.39,30.679,29.85,0,12.82-6.833,21.05-19.383,25.51l35,43.65H212.209ZM189.9,4977.2H175.673v18.97H189.9c6.554,0,11.3-3.77,11.3-9.48C201.192,4980.69,196.451,4977.2,189.9,4977.2Zm11.015,101.37-14.5,15.34a22.02,22.02,0,0,0-17.153-8.23c-6,0-11.992,2.37-11.992,7.53,0,5.3,4.881,7.67,15.339,11.44l6.973,2.51c14.363,5.16,23.706,14.64,23.567,29.56-0.14,17.99-14.5,30.54-35.42,30.54-15.619,0-29.006-6.55-36.676-17.71l17.013-14.36c4.741,7.11,13.248,11.29,20.5,11.29,7.391,0,11.993-3.48,11.993-8.22,0-5.02-3.905-8.51-13.806-11.86l-6.972-2.37c-16.037-5.44-24.961-15.06-24.961-28.59,0-19.24,14.363-30.53,34.165-30.53C180.971,5064.91,191.709,5068.67,200.912,5078.57Zm-89.389-22.72-32.91-40.86H74.988v40.86H52.815v-99.01H91.861c18.686,0,30.679,13.39,30.679,29.85,0,12.82-6.833,21.05-19.384,25.51l35,43.65H111.523ZM89.211,4977.2H74.988v18.97H89.211c6.554,0,11.3-3.77,11.3-9.48C100.507,4980.69,95.765,4977.2,89.211,4977.2ZM2.19,5144.67H0v-58.78l34.124,79.7H10.975Zm0-109.74H0v-58.77l34.124,79.69H10.975Zm72.8,109.46h41v21.2H52.815v-99.01H74.988v77.81Z"/>
  <path id="NEW_4" data-name="NEW " class="cls-1" d="M140.674,4915.85v-99.01H118.362v61.08l-48.11-61.08h-19.1v99.01H73.32v-61.22l48.249,61.22h19.105Zm29.289,0h62.752v-21.19h-40.58v-17.71h32.213v-21.2H192.135v-17.71h40.58v-21.2H169.963v99.01Zm165.948,0h21.057l23.009-99.01H356.271l-13.527,62.76-27.889-64.43L287.1,4879.6l-13.526-62.76H249.871l22.87,99.01H293.8l21.057-48.53Z"/>
  <path id="Rectangle_622_copy_28" data-name="Rectangle 622 copy 28" class="cls-1" d="M347.657,4546.85v-20.08h41v20.08h-41Zm-68.753,29-40.579-99.01h24.124l26.356,65.96,26.217-65.96h24.4l-40.58,99.01H278.9Zm-81.718-99.01h22.172v99.01H197.186v-99.01Zm-41.977,99.01-32.91-40.86h-3.626v40.86H96.5v-99.01h39.045c18.686,0,30.679,13.39,30.679,29.85,0,12.82-6.833,21.05-19.383,25.51l35,43.65H155.209ZM132.9,4497.2H118.673v18.97H132.9c6.554,0,11.3-3.77,11.3-9.48C144.192,4500.69,139.451,4497.2,132.9,4497.2Zm11.015,101.37-14.5,15.34a22.02,22.02,0,0,0-17.153-8.23c-6,0-11.992,2.37-11.992,7.53,0,5.3,4.881,7.67,15.339,11.44l6.973,2.51c14.363,5.16,23.706,14.64,23.567,29.56-0.14,17.99-14.5,30.54-35.421,30.54-15.618,0-29-6.55-36.675-17.71l17.013-14.36c4.741,7.11,13.248,11.29,20.5,11.29,7.391,0,11.993-3.48,11.993-8.22,0-5.02-3.905-8.51-13.806-11.86l-6.972-2.37c-16.037-5.44-24.961-15.06-24.961-28.58,0-19.25,14.363-30.54,34.165-30.54C123.971,4584.91,134.709,4588.67,143.912,4598.57Zm-89.389-22.72-32.91-40.86H17.988v40.86H0v-99.01H34.861c18.686,0,30.679,13.39,30.679,29.85,0,12.82-6.833,21.05-19.383,25.51l35,43.65H54.523ZM32.211,4497.2H17.988v18.97H32.211c6.554,0,11.3-3.77,11.3-9.48C43.507,4500.69,38.766,4497.2,32.211,4497.2ZM17.988,4664.39h41v21.2H0v-99.01H17.988v77.81Z"/>
  <path id="NEW_5" data-name="NEW " class="cls-1" d="M140.674,4420.85v-99.01H118.362v61.08l-48.11-61.08h-19.1v99.01H73.32v-61.22l48.249,61.22h19.105Zm29.289,0h62.752v-21.19h-40.58v-17.71h32.213v-21.2H192.135v-17.71h40.58v-21.2H169.963v99.01Zm165.948,0h21.057l23.009-99.01H356.271l-13.527,62.76-27.889-64.43L287.1,4384.6l-13.526-62.76H249.871l22.87,99.01H293.8l21.057-48.53Z"/>
  <path id="Rectangle_622_copy_27" data-name="Rectangle 622 copy 27" class="cls-1" d="M291.657,4066.85v-20.08h41v20.08h-41Zm-68.753,29-40.579-99.01h24.124l26.356,65.96,26.217-65.96h24.4l-40.58,99.01H222.9Zm-81.718-99.01h22.172v99.01H141.186v-99.01Zm-41.977,99.01L66.3,4054.99H62.673v40.86H40.5v-99.01H79.546c18.686,0,30.679,13.39,30.679,29.85,0,12.82-6.833,21.05-19.383,25.51l35,43.65H99.209ZM76.9,4017.2H62.673v18.97H76.9c6.554,0,11.3-3.77,11.3-9.48C88.192,4020.69,83.451,4017.2,76.9,4017.2Zm11.016,101.37-14.5,15.34a22.019,22.019,0,0,0-17.152-8.23c-6,0-11.993,2.37-11.993,7.53,0,5.3,4.881,7.67,15.339,11.44l6.972,2.51c14.363,5.16,23.706,14.64,23.567,29.56-0.139,17.99-14.5,30.54-35.42,30.54-15.618,0-29.005-6.55-36.675-17.71l17.013-14.36c4.741,7.11,13.248,11.29,20.5,11.29,7.391,0,11.993-3.48,11.993-8.22,0-5.02-3.9-8.51-13.805-11.86l-6.972-2.37c-16.037-5.44-24.961-15.06-24.961-28.59,0-19.24,14.363-30.53,34.165-30.53C67.971,4104.91,78.709,4108.67,87.912,4118.57ZM0,4064.48l25.158,31.37H0v-31.37Zm0-60.03a29.509,29.509,0,0,1,9.54,22.24c0,8.91-3.31,15.6-9.54,20.36v-42.6Zm2.986,201.14H0v-21.2H2.986v21.2Z"/>
  <path id="Rectangle_622_copy_26" data-name="Rectangle 622 copy 26" class="cls-1" d="M80.615,3840l37.747,47.92V3840h22.312v85.85H121.569L73.32,3864.63v61.22H51.148V3840H80.615Zm152.1,0v8.04h-40.58v17.71h32.213v21.2H192.135v17.71h40.58v21.19H169.963V3840h62.752Zm43.7,0,10.69,49.6,21.363-49.6h12.808l21.469,49.6,10.691-49.6H376.92l-19.952,85.85H335.911l-21.056-48.53L293.8,3925.85H272.741L252.91,3840h23.5Z"/>
  <path id="Rectangle_622_copy_25" data-name="Rectangle 622 copy 25" class="cls-1" d="M235.657,3586.85v-20.08h41v20.08h-41Zm-68.753,29-40.579-99.01h24.124l26.356,65.96,26.217-65.96h24.4l-40.58,99.01H166.9Zm-81.718-99.01h22.172v99.01H85.186v-99.01Zm-41.977,99.01L10.3,3574.99H6.673v40.86H0v-99.01H23.546c18.686,0,30.679,13.39,30.679,29.85,0,12.82-6.833,21.05-19.383,25.51l35,43.65H43.209ZM20.9,3537.2H6.673v18.97H20.9c6.554,0,11.3-3.77,11.3-9.48C32.192,3540.69,27.451,3537.2,20.9,3537.2Zm11.016,101.37-14.5,15.34a22.019,22.019,0,0,0-17.152-8.23c-0.086,0-.172.01-0.257,0.01v-20.78C11.984,3624.91,22.714,3628.68,31.912,3638.57ZM0,3706.47c7.129-.14,11.553-3.57,11.553-8.21,0-4.62-3.317-7.94-11.553-11.05v-23.89c1.119,0.42,2.318.87,3.6,1.33l6.972,2.51c14.363,5.16,23.706,14.64,23.567,29.56-0.137,17.62-13.923,30.01-34.144,30.52v-20.77Z"/>
  <path id="Rectangle_622_copy_24" data-name="Rectangle 622 copy 24" class="cls-1" d="M91.643,3360l26.719,33.92V3360h22.312v71.85H121.569L73.32,3370.63v61.22H51.148V3360h40.5Zm100.492,0v11.75h32.213v21.2H192.135v17.71h40.58v21.19H169.963V3360h22.172Zm87.3,0,7.673,35.6,15.332-35.6h24.9l15.409,35.6,7.673-35.6h23.249l-16.7,71.85H335.911l-21.056-48.53L293.8,3431.85H272.741l-16.6-71.85h23.287Z"/>
  <path id="Rectangle_622_copy_23" data-name="Rectangle 622 copy 23" class="cls-1" d="M179.657,3106.85v-20.08h41v20.08h-41Zm-68.753,29-40.579-99.01H94.449l26.356,65.96,26.217-65.96h24.4l-40.58,99.01H110.9Zm-81.718-99.01H51.358v99.01H29.186v-99.01ZM0,3118.59l13.843,17.26H0v-17.26Z"/>
  <path id="Rectangle_622_copy_22" data-name="Rectangle 622 copy 22" class="cls-1" d="M73.32,2880v56.85H51.148V2880H73.32Zm30.138,0,14.9,18.92V2880h22.312v56.85H121.569L76.761,2880h26.7Zm120.89,0v17.95H192.135v17.71h40.58v21.19H169.963V2880h54.385Zm58.317,0,4.439,20.6,8.871-20.6h37.854l8.915,20.6,4.44-20.6h23l-13.212,56.85H335.911l-21.056-48.53L293.8,2936.85H272.741L259.609,2880h23.056Z"/>
  <path id="Rectangle_622_copy_21" data-name="Rectangle 622 copy 21" class="cls-1" d="M123.657,2626.85v-20.08h41v20.08h-41Zm-68.753,29-40.58-99.01H38.449l26.356,65.96,26.216-65.96h24.4l-40.58,99.01H54.9Z"/>
  <path id="Rectangle_622_copy_20" data-name="Rectangle 622 copy 20" class="cls-1" d="M73.32,2400v41.85H51.148V2400H73.32Zm41.953,0,3.089,3.92V2400h22.312v41.85H121.569L88.583,2400h26.69Zm109.075,0v2.95H192.135v17.71h40.58v21.19H169.963V2400h54.385Zm61.55,0,1.206,5.6,2.41-5.6h22.444l-18.16,41.85H272.741L263.074,2400H285.9Zm54.424,0,2.422,5.6,1.206-5.6h22.744l-9.726,41.85H335.911L317.751,2400h22.571Z"/>
  <path id="Rectangle_622_copy_19" data-name="Rectangle 622 copy 19" class="cls-1" d="M66.9,2146.69V2126.6h40.98v20.09H66.9ZM0,2175.72v-53.29l8.072,20.22,26.2-66H58.669l-40.561,99.07H0Z"/>
  <path id="Rectangle_622_copy_18" data-name="Rectangle 622 copy 18" class="cls-1" d="M73.557,1920v26.58H51.395V1920H73.557Zm67.324,0v26.58h-19.1L100.857,1920h40.024Zm51.438,0v5.37H232.88v21.21H170.156V1920h22.163Zm113.138,0-11.521,26.58H272.888L266.755,1920h38.7Zm57.791,0-6.17,26.58H336.03L324.509,1920h38.739Z"/>
  <path id="Rectangle_622_copy_16" data-name="Rectangle 622 copy 16" class="cls-1" d="M10.657,1666.85v-20.08h41v20.08h-41ZM0,1596.84H2.425L0,1602.76v-5.92Z"/>
  <path id="Rectangle_622_copy_17" data-name="Rectangle 622 copy 17" class="cls-1" d="M73.32,1440v11.85H51.148V1440H73.32Zm67.354,0v11.85H121.569L112.228,1440h28.446Zm92.041,0v11.85H169.963V1440h62.752Zm66.225,0-5.142,11.85H272.741L270,1440H298.94Zm60.783,0-2.755,11.85H335.911L330.769,1440h28.954Z"/>
</svg>
